<?xml version="1.0"?>
<svg enable-background="new 0 0 512 512" id="Layer_1" version="1.1" viewBox="0 0 512 512"
    xml:space="preserve" xmlns="http://www.w3.org/2000/svg"
    xmlns:xlink="http://www.w3.org/1999/xlink"><g><g><linearGradient gradientUnits="userSpaceOnUse" id="SVGID_1_" x1="-0.0000027" x2="512" y1="256" y2="256"><stop offset="0" style="stop-color:#00AEEE"/><stop offset="1" style="stop-color:#0095DA"/></linearGradient><circle cx="256" cy="256" fill="url(#SVGID_1_)" r="256"/><linearGradient gradientUnits="userSpaceOnUse" id="SVGID_2_" x1="42.6666641" x2="469.3333435" y1="256.0005188" y2="256.0005188"><stop offset="0" style="stop-color:#0095DA"/><stop offset="1" style="stop-color:#00AEEE"/></linearGradient><path d="M256,469.3338623c-117.6315002,0-213.3333435-95.7018738-213.3333435-213.3333435    c0-117.6309204,95.7018356-213.333313,213.3333435-213.333313c117.6357117,0,213.3333435,95.7024002,213.3333435,213.333313    C469.3333435,373.6319885,373.6357117,469.3338623,256,469.3338623z" fill="url(#SVGID_2_)"/></g><g><path d="M374.7093201,182.2949371h-61.1936035v-19.5487976c0-8.2714691-6.7285461-15-15-15H227.934906    c-8.2714691,0-15,6.7285309-15,15v19.5487976h-59.64534c-5.130661,0-9.289566,4.1599884-9.289566,9.2901306v84.5344086    c0,1.5610657,0.4218445,3.0095825,1.1023712,4.3013306h47.0469666v-10.6997375h26.7498322v10.6997375h90.2000122v-10.6997375    h26.7498474v10.6997375h47.0480042C383.5780945,279.1290588,384,277.680542,384,276.1194763v-84.5344086    C384,186.4549255,379.8405151,182.2949371,374.7093201,182.2949371z M222.934906,162.7461395c0-2.7584076,2.2431946-5,5-5    h70.5808105c2.7567749,0,5,2.2415924,5,5v19.5487976H222.934906V162.7461395z" opacity="0.3"/><path d="M335.8490295,292.5210571c0,7.3994751-6,13.3994751-13.3999939,13.3994751    c-7.3498535,0-13.3498535-6-13.3498535-13.3994751v-2.1002502h-90.2000122v2.1002502    c0,7.3994751-6,13.3994751-13.3498688,13.3994751c-7.3999634,0-13.3999634-6-13.3999634-13.3994751v-2.1002502h-34.2138977    v79.8330688c0,5.522644,4.4767914,10,10,10h190.580246c5.5232239,0,10-4.477356,10-10v-79.8330688h-32.6666565V292.5210571z" opacity="0.3"/></g><g><path d="M366.7093201,174.2949371h-61.1936035v-19.5487976c0-8.2714691-6.7285461-15-15-15H219.934906    c-8.2714691,0-15,6.7285309-15,15v19.5487976h-59.64534c-5.130661,0-9.289566,4.1599884-9.289566,9.2901306v84.5344086    c0,1.5610657,0.4218445,3.0095825,1.1023712,4.3013306h47.0469666v-10.6997375h26.7498322v10.6997375h90.2000122v-10.6997375    h26.7498474v10.6997375h47.0480042C375.5780945,271.1290588,376,269.680542,376,268.1194763v-84.5344086    C376,178.4549255,371.8405151,174.2949371,366.7093201,174.2949371z M214.934906,154.7461395c0-2.7584076,2.2431946-5,5-5    h70.5808105c2.7567749,0,5,2.2415924,5,5v19.5487976H214.934906V154.7461395z" fill="#FFFFFF"/><path d="M327.8490295,284.5210571c0,7.3994751-6,13.3994751-13.3999939,13.3994751    c-7.3498535,0-13.3498535-6-13.3498535-13.3994751v-2.1002502h-90.2000122v2.1002502    c0,7.3994751-6,13.3994751-13.3498688,13.3994751c-7.3999634,0-13.3999634-6-13.3999634-13.3994751v-2.1002502h-34.2138977    v79.8330688c0,5.522644,4.4767914,10,10,10h190.580246c5.5232239,0,10-4.477356,10-10v-79.8330688h-32.6666565V284.5210571z" fill="#FFFFFF"/></g></g></svg>